<svg width="56" height="56" viewBox="0 0 56 56" fill="none" xmlns="http://www.w3.org/2000/svg">
<g clip-path="url(#clip0_93_78)">
<path d="M40 0H16C7.16344 0 0 7.16344 0 16V40C0 48.8366 7.16344 56 16 56H40C48.8366 56 56 48.8366 56 40V16C56 7.16344 48.8366 0 40 0Z" fill="#164C3A"/>
<path d="M28 14V42" stroke="white" stroke-width="3" stroke-linecap="round" stroke-linejoin="round"/>
<path d="M12 41C11.4696 41 10.9609 40.7893 10.5858 40.4142C10.2107 40.0391 10 39.5304 10 39V13C10 12.4696 10.2107 11.9609 10.5858 11.5858C10.9609 11.2107 11.4696 11 12 11H22C23.5913 11 25.1174 11.6321 26.2426 12.7574C27.3679 13.8826 28 15.4087 28 17C28 15.4087 28.6321 13.8826 29.7574 12.7574C30.8826 11.6321 32.4087 11 34 11H44C44.5304 11 45.0391 11.2107 45.4142 11.5858C45.7893 11.9609 46 12.4696 46 13V39C46 39.5304 45.7893 40.0391 45.4142 40.4142C45.0391 40.7893 44.5304 41 44 41H34C32.9391 41 31.9217 41.4214 31.1716 42.1716C30.4214 42.9217 28 44.4391 28 45.5C28 44.4391 26.2501 43.2501 25.5 42.5C24.7499 41.7499 23.0609 41 22 41H12Z" stroke="white" stroke-width="3" stroke-linecap="round" stroke-linejoin="round"/>
</g>
<defs>
<clipPath id="clip0_93_78">
<rect width="56" height="56" fill="white"/>
</clipPath>
</defs>
</svg>
